<?xml version="1.0" encoding="UTF-8" standalone="no"?>
<svg
   xmlns:dc="http://purl.org/dc/elements/1.1/"
   xmlns:cc="http://creativecommons.org/ns#"
   xmlns:rdf="http://www.w3.org/1999/02/22-rdf-syntax-ns#"
   xmlns:svg="http://www.w3.org/2000/svg"
   xmlns="http://www.w3.org/2000/svg"
   xmlns:sodipodi="http://sodipodi.sourceforge.net/DTD/sodipodi-0.dtd"
   xmlns:inkscape="http://www.inkscape.org/namespaces/inkscape"
   inkscape:version="1.0 (4035a4fb49, 2020-05-01)"
   height="56"
   width="56"
   sodipodi:docname="second-feature-icon.svg"
   id="svg8"
   xml:space="preserve"
   viewBox="0 0 56 56"
   y="0px"
   x="0px"
   version="1.1"><metadata
     id="metadata14"><rdf:RDF><cc:Work
         rdf:about=""><dc:format>image/svg+xml</dc:format><dc:type
           rdf:resource="http://purl.org/dc/dcmitype/StillImage" /><dc:title></dc:title></cc:Work></rdf:RDF></metadata><defs
     id="defs12" /><sodipodi:namedview
     inkscape:current-layer="svg8"
     inkscape:window-maximized="1"
     inkscape:window-y="-8"
     inkscape:window-x="-8"
     inkscape:cy="32.470588"
     inkscape:cx="32"
     inkscape:zoom="10.625"
     showgrid="false"
     id="namedview10"
     inkscape:window-height="1017"
     inkscape:window-width="1920"
     inkscape:pageshadow="2"
     inkscape:pageopacity="0"
     guidetolerance="10"
     gridtolerance="10"
     objecttolerance="10"
     borderopacity="1"
     bordercolor="#666666"
     pagecolor="#ffffff" /><path
     style="stroke-width:0.933334;fill:#aade87"
     id="path2"
     d="m 5.6,56 c 3.0930667,0 5.6,-2.506933 5.6,-5.6 0,-1.6772 -0.741067,-3.178 -1.9096,-4.204667 0.4890667,-0.8596 1.003333,-1.700533 1.567067,-2.533066 1.0024,0.0047 2.014133,0.06067 3.013733,0.195066 1.039733,0.144667 2.044933,0.374267 3.019333,0.6468 -0.0532,0.4032 -0.09053,0.811067 -0.09053,1.2292 0,5.1548 4.178533,9.333334 9.333333,9.333334 5.1548,0 9.333334,-4.178534 9.333334,-9.333334 0,-5.1548 -4.178534,-9.333333 -9.333334,-9.333333 -4.087066,0 -7.5516,2.631067 -8.815333,6.287867 -1.032267,-0.2856 -2.093467,-0.5264 -3.193867,-0.679467 -0.6468,-0.0868 -1.298266,-0.147467 -1.9488,-0.1848 0.777467,-1.0108 1.600667,-1.974933 2.495734,-2.9092 0.729866,-0.756933 1.440133,-1.434533 2.17,-2.070133 1.9096,-1.652 3.7408,-2.8364 5.679333,-4.0908 2.0692,-1.3384 4.209333,-2.728134 6.681733,-4.8104 2.0608,0.0784 4.0796,0.392 6.0032,0.952933 0.797067,0.231467 1.5792,0.518 2.348267,0.8316 -0.14,0.6468 -0.220267,1.316933 -0.220267,2.005733 0,5.1548 4.178534,9.333334 9.333334,9.333334 C 51.821467,41.066667 56,36.888133 56,31.733333 56,26.578533 51.821467,22.4 46.666667,22.4 42.8596,22.4 39.590133,24.682933 38.1388,27.951467 37.348267,27.6332 36.544667,27.341067 35.728,27.104 c -1.484,-0.432133 -3.022133,-0.7224 -4.588267,-0.888533 1.8816,-1.7584 3.640934,-3.663334 5.240667,-5.683067 0.0065,0 0.01307,9.33e-4 0.0196,9.33e-4 5.67,0 10.266667,-4.596666 10.266667,-10.266666 C 46.666667,4.5966667 42.07,0 36.4,0 30.73,0 26.133333,4.5966667 26.133333,10.266667 c 0,4.9056 3.443067,9.001066 8.042534,10.0184 -1.521334,1.8312 -3.170534,3.563466 -4.928934,5.151066 -0.331333,0.294 -0.653333,0.5796 -0.966933,0.847467 -2.5032,2.142 -4.6732,3.545733 -6.772267,4.903733 -1.5288,0.989334 -2.994133,1.941334 -4.500533,3.1136 C 16.94093,33.9668 16.8616,33.634533 16.7524,33.305067 16.562933,32.7348 16.295067,32.172 15.973067,31.640933 18.175733,29.933867 19.6,27.2692 19.6,24.266667 c 0,-5.1548 -4.178533,-9.333334 -9.333333,-9.333334 -5.1548003,0 -9.33333367,4.178534 -9.33333367,9.333334 0,5.1548 4.17853337,9.333333 9.33333367,9.333333 1.477466,0 2.869066,-0.3528 4.1104,-0.9632 0.2436,0.405067 0.4592,0.825067 0.602933,1.256267 0.200667,0.606666 0.2856,1.228266 0.298667,1.851733 -0.653334,0.5852 -1.2964,1.196533 -1.952534,1.876933 C 11.946667,39.06 10.725867,40.553333 9.5928,42.186667 8.9012,43.1816 8.2870667,44.184933 7.7037333,45.213467 7.0541333,44.9484 6.3448,44.8 5.6,44.8 2.5069333,44.8 0,47.306933 0,50.4 0,53.493067 2.5069333,56 5.6,56 Z m 18.214933,-8.681867 c 0.343467,-1.0332 0.961334,-2.0272 0.9044,-3.109866 -0.03267,-0.6216 -0.2884,-1.211467 -0.395733,-1.8256 -0.211867,-1.210534 0.6972,-2.666534 2.155067,-2.137334 0.583333,0.211867 1.021066,0.686934 1.333733,1.202134 0.220267,0.363066 0.388267,0.755066 0.502133,1.160133 0.234267,0.839067 0.2352,1.7388 -0.01493,2.574133 -0.308933,1.036934 -0.986533,1.994534 -0.994,3.072534 -0.0056,0.7252 0.293067,1.4812 0.0093,2.154133 -0.3052,0.723333 -1.26,1.078 -2.045866,0.864267 C 24.48317,51.058 23.898903,50.376667 23.680503,49.6244 23.463037,48.8712 23.56757,48.062 23.814903,47.318133 Z M 41.066667,29.5064 c 0.391066,-0.354667 0.872666,-0.573067 1.4,-0.573067 0.8708,0 1.6212,0.5796 2.022533,1.428 0.801733,-0.8484 2.302533,-1.428 4.044133,-1.428 2.576934,0 4.666667,1.253467 4.666667,2.8 0,1.546534 -2.089733,2.8 -4.666667,2.8 -1.7416,0 -3.2424,-0.5796 -4.044133,-1.428 -0.401333,0.8484 -1.151733,1.428 -2.022533,1.428 -0.527334,0 -1.008934,-0.2184 -1.4,-0.573066 C 41.6304,33.4488 42,32.646133 42,31.733333 c 0,-0.9128 -0.3696,-1.7164 -0.933333,-2.226933 z M 33.6,12.133333 V 8.4 c 0,-1.0313333 0.835333,-1.8666667 1.866667,-1.8666667 H 36.4 C 35.368667,6.5333333 34.533333,5.698 34.533333,4.6666667 34.533333,3.6353333 35.368667,2.8 36.4,2.8 c 1.031333,0 1.866667,0.8353333 1.866667,1.8666667 0,1.0313333 -0.835334,1.8666666 -1.866667,1.8666666 h 0.933333 C 38.364667,6.5333333 39.2,7.3686667 39.2,8.4 v 3.733333 l -0.933333,0.933334 v 4.666666 H 34.533333 V 13.066667 Z M 14.877333,24.669867 c -0.42,0.42 -0.878266,0.7448 -1.339333,0.987466 0.141867,0.098 0.28,0.2072 0.4088,0.335067 0.910933,0.910933 1.059333,2.240933 0.3304,2.969867 -0.728933,0.728933 -2.058933,0.581466 -2.969867,-0.3304 -0.21,-0.21 -0.3752,-0.444267 -0.503066,-0.686934 -0.1148,0.0224 -0.2352,0.028 -0.3556,0.03547 C 10.3236,28.21 10.1668,28.432133 9.9670667,28.631867 9.0561333,29.5428 7.7261333,29.6912 6.9972,28.962267 6.2682667,28.233333 6.4148,26.904267 7.3266667,25.993333 7.3938667,25.926133 7.4676,25.872 7.5385333,25.8132 7.5292,25.769333 7.5226667,25.725467 7.5152,25.680667 7.0382667,25.4352 6.5641333,25.103867 6.1301333,24.6708 4.6722667,23.212933 4.2289333,21.292133 5.1398667,20.3812 6.0508,19.470267 7.9716,19.9136 9.4294667,21.371467 9.7552,21.6972 10.022133,22.048133 10.243333,22.403733 c 0.0084,-0.0019 0.01587,-0.0037 0.02333,-0.0037 0.1596,0 0.3136,0.02147 0.466666,0.04667 0.224934,-0.371467 0.504,-0.737334 0.843734,-1.077067 1.457866,-1.457867 3.378666,-1.9012 4.2896,-0.990267 C 16.7776,21.2912 16.3352,23.212 14.877333,24.669867 Z M 7.4666667,50.4 v 1.866667 H 5.6 V 50.4 Z M 3.7333333,47.6 H 5.6 v 1.866667 H 3.7333333 Z" /></svg>
